<?xml version="1.0" encoding="UTF-8" standalone="no" ?>
<!DOCTYPE svg PUBLIC "-//W3C//DTD SVG 1.1//EN" "http://www.w3.org/Graphics/SVG/1.1/DTD/svg11.dtd">
<svg xmlns="http://www.w3.org/2000/svg" xmlns:xlink="http://www.w3.org/1999/xlink" version="1.1" width="1200" height="628" viewBox="37.71 24.86 1200 628" xml:space="preserve">
<desc>Created with Fabric.js 4.2.0</desc>
<defs>
</defs>
<rect x="0" y="0" width="100%" height="100%" fill="transparent"></rect>
<g transform="matrix(Infinity NaN NaN Infinity 0 0)" id="040b39c1-cff6-46fc-8f54-8cd471244495"  >
</g>
<g transform="matrix(1 0 0 1 600 314)" id="bc18c791-9c8a-4ead-abc9-8c86fe5002d9"  >
<rect style="stroke: none; stroke-width: 1; stroke-dasharray: none; stroke-linecap: butt; stroke-dashoffset: 0; stroke-linejoin: miter; stroke-miterlimit: 4; fill: rgb(255,255,255); fill-rule: nonzero; opacity: 1; visibility: hidden;" vector-effect="non-scaling-stroke"  x="-600" y="-314" rx="0" ry="0" width="1200" height="628" />
</g>
<g transform="matrix(2.01 0 0 3.74 661.82 285.32)"  >
<g style="" vector-effect="non-scaling-stroke"   >
		<g transform="matrix(1.23 0 0 1.23 -159.15 0)"  >
<path style="stroke: none; stroke-width: 1; stroke-dasharray: none; stroke-linecap: butt; stroke-dashoffset: 0; stroke-linejoin: miter; stroke-miterlimit: 4; fill: rgb(92,92,92); fill-rule: nonzero; opacity: 1;" vector-effect="non-scaling-stroke"  transform=" translate(0, 12.25)" d="M -81.94 -7.42 C -81.94 -7.88 -82 -8.36 -82.12 -8.85 C -82.24 -9.33 -82.41 -9.8 -82.64 -10.25 C -82.87 -10.7 -83.15 -11.11 -83.47 -11.49 C -83.79 -11.86 -84.16 -12.16 -84.56 -12.37 C -84.17 -12.62 -83.81 -12.92 -83.49 -13.29 C -83.17 -13.66 -82.89 -14.07 -82.66 -14.52 C -82.43 -14.96 -82.25 -15.43 -82.13 -15.91 C -82 -16.4 -81.94 -16.87 -81.94 -17.33 C -81.94 -18.35 -82.13 -19.31 -82.52 -20.21 C -82.91 -21.11 -83.45 -21.89 -84.12 -22.57 C -84.79 -23.24 -85.58 -23.77 -86.47 -24.16 C -87.37 -24.55 -88.33 -24.75 -89.36 -24.75 L -101.73 -24.75 L -101.73 0 L -89.36 0 C -88.33 0 -87.37 -0.2 -86.47 -0.59 C -85.58 -0.98 -84.79 -1.51 -84.12 -2.18 C -83.45 -2.86 -82.91 -3.64 -82.52 -4.54 C -82.13 -5.44 -81.94 -6.4 -81.94 -7.42 Z M -96.78 -4.95 L -96.78 -9.89 L -89.36 -9.89 C -89.01 -9.89 -88.69 -9.83 -88.39 -9.7 C -88.09 -9.57 -87.83 -9.4 -87.61 -9.17 C -87.38 -8.95 -87.21 -8.69 -87.08 -8.39 C -86.95 -8.09 -86.89 -7.77 -86.89 -7.42 C -86.89 -7.08 -86.95 -6.75 -87.08 -6.46 C -87.21 -6.16 -87.38 -5.89 -87.61 -5.67 C -87.83 -5.45 -88.09 -5.27 -88.39 -5.14 C -88.69 -5.02 -89.01 -4.95 -89.36 -4.95 Z M -96.78 -14.84 L -96.78 -19.8 L -89.36 -19.8 C -89.01 -19.8 -88.69 -19.73 -88.39 -19.61 C -88.09 -19.48 -87.83 -19.3 -87.61 -19.08 C -87.38 -18.86 -87.21 -18.59 -87.08 -18.29 C -86.95 -18 -86.89 -17.67 -86.89 -17.33 C -86.89 -16.98 -86.95 -16.66 -87.08 -16.35 C -87.21 -16.05 -87.38 -15.78 -87.61 -15.56 C -87.83 -15.33 -88.09 -15.16 -88.39 -15.03 C -88.69 -14.91 -89.01 -14.84 -89.36 -14.84 Z M -69.7 0 L -69.7 -9.89 L -59.81 -9.89 L -59.81 0 L -54.86 0 L -54.86 -24.75 L -59.81 -24.75 L -59.81 -14.84 L -69.7 -14.84 L -69.7 -24.75 L -74.66 -24.75 L -74.66 0 Z M -32.17 -9.89 L -42.07 -9.89 L -42.07 -14.84 C -42.07 -15.52 -41.94 -16.16 -41.68 -16.77 C -41.43 -17.37 -41.07 -17.9 -40.62 -18.35 C -40.17 -18.8 -39.65 -19.15 -39.04 -19.41 C -38.44 -19.67 -37.8 -19.8 -37.12 -19.8 C -36.44 -19.8 -35.8 -19.67 -35.2 -19.41 C -34.59 -19.15 -34.06 -18.8 -33.62 -18.35 C -33.17 -17.9 -32.81 -17.37 -32.55 -16.77 C -32.3 -16.16 -32.17 -15.52 -32.17 -14.84 Z M -27.21 0 L -27.21 -14.84 C -27.21 -16.21 -27.47 -17.5 -27.99 -18.7 C -28.51 -19.9 -29.21 -20.95 -30.11 -21.85 C -31.01 -22.75 -32.06 -23.46 -33.26 -23.97 C -34.46 -24.49 -35.75 -24.75 -37.12 -24.75 C -38.49 -24.75 -39.77 -24.49 -40.98 -23.97 C -42.18 -23.46 -43.23 -22.75 -44.12 -21.85 C -45.01 -20.95 -45.71 -19.9 -46.23 -18.7 C -46.75 -17.5 -47.01 -16.21 -47.01 -14.84 L -47.01 0 L -42.07 0 L -42.07 -4.95 L -32.17 -4.95 L -32.17 0 Z M 0.31 -2.5 L 0.31 -12.27 L -4.47 -12.27 L -4.47 -5.23 C -5 -4.96 -5.56 -4.76 -6.14 -4.61 C -6.73 -4.46 -7.33 -4.38 -7.95 -4.38 C -9.04 -4.38 -10.05 -4.59 -11 -5.01 C -11.95 -5.42 -12.78 -5.98 -13.5 -6.7 C -14.21 -7.41 -14.77 -8.24 -15.19 -9.2 C -15.6 -10.15 -15.81 -11.18 -15.81 -12.27 C -15.81 -13.35 -15.6 -14.37 -15.19 -15.32 C -14.77 -16.27 -14.21 -17.1 -13.5 -17.8 C -12.78 -18.51 -11.95 -19.07 -11 -19.49 C -10.05 -19.9 -9.04 -20.11 -7.95 -20.11 C -6.87 -20.11 -5.84 -19.89 -4.87 -19.46 C -3.89 -19.03 -3.02 -18.43 -2.28 -17.67 L 0.31 -21.99 C -0.84 -22.97 -2.12 -23.72 -3.54 -24.24 C -4.95 -24.76 -6.42 -25.03 -7.95 -25.03 C -9.13 -25.03 -10.26 -24.87 -11.35 -24.57 C -12.43 -24.26 -13.45 -23.84 -14.39 -23.28 C -15.34 -22.73 -16.2 -22.07 -16.98 -21.29 C -17.76 -20.51 -18.43 -19.65 -18.98 -18.7 C -19.54 -17.75 -19.96 -16.74 -20.27 -15.65 C -20.57 -14.57 -20.73 -13.45 -20.73 -12.27 C -20.73 -11.1 -20.57 -9.96 -20.27 -8.87 C -19.96 -7.78 -19.54 -6.76 -18.98 -5.81 C -18.43 -4.86 -17.76 -4 -16.98 -3.22 C -16.2 -2.44 -15.34 -1.77 -14.39 -1.22 C -13.45 -0.66 -12.43 -0.23 -11.35 0.08 C -10.26 0.38 -9.13 0.54 -7.95 0.54 C -6.42 0.54 -4.95 0.27 -3.54 -0.25 C -2.12 -0.77 -0.84 -1.52 0.31 -2.5 Z M 18.79 0 L 18.79 -7.75 C 19.89 -8.03 20.89 -8.47 21.8 -9.08 C 22.71 -9.69 23.49 -10.42 24.14 -11.26 C 24.8 -12.11 25.31 -13.05 25.67 -14.08 C 26.03 -15.1 26.22 -16.19 26.22 -17.33 L 26.22 -24.75 L 21.28 -24.75 L 21.28 -17.33 C 21.28 -16.65 21.15 -16.01 20.89 -15.4 C 20.63 -14.8 20.28 -14.27 19.83 -13.82 C 19.38 -13.38 18.85 -13.02 18.25 -12.76 C 17.65 -12.5 17 -12.37 16.33 -12.37 C 15.65 -12.37 15.01 -12.5 14.4 -12.76 C 13.8 -13.02 13.27 -13.38 12.82 -13.82 C 12.37 -14.27 12.02 -14.8 11.76 -15.4 C 11.5 -16.01 11.37 -16.65 11.37 -17.33 L 11.37 -24.75 L 6.42 -24.75 L 6.42 -17.33 C 6.42 -16.19 6.6 -15.1 6.96 -14.08 C 7.32 -13.05 7.83 -12.11 8.49 -11.26 C 9.15 -10.42 9.93 -9.69 10.85 -9.08 C 11.76 -8.47 12.76 -8.03 13.86 -7.75 L 13.86 0 Z M 50.08 0 L 50.08 -4.95 L 38.07 -4.95 L 38.07 -9.89 L 46.2 -9.89 L 46.2 -14.84 L 38.07 -14.84 L 38.07 -19.8 L 50.08 -19.8 L 50.08 -24.75 L 33.12 -24.75 L 33.12 0 Z M 55.36 -17.33 C 55.36 -16.3 55.56 -15.34 55.95 -14.44 C 56.34 -13.53 56.87 -12.75 57.54 -12.07 C 58.22 -11.4 59 -10.87 59.9 -10.48 C 60.8 -10.09 61.76 -9.89 62.78 -9.89 L 67.73 -9.89 C 68.08 -9.89 68.4 -9.83 68.7 -9.7 C 69 -9.57 69.26 -9.4 69.49 -9.17 C 69.71 -8.95 69.89 -8.69 70.01 -8.39 C 70.14 -8.09 70.2 -7.77 70.2 -7.42 C 70.2 -7.08 70.14 -6.75 70.01 -6.46 C 69.89 -6.16 69.71 -5.89 69.49 -5.67 C 69.26 -5.45 69 -5.27 68.7 -5.14 C 68.4 -5.02 68.08 -4.95 67.73 -4.95 L 56.74 -4.95 L 56.74 0 L 67.73 0 C 68.76 0 69.72 -0.2 70.63 -0.59 C 71.53 -0.98 72.32 -1.51 72.99 -2.18 C 73.66 -2.86 74.19 -3.64 74.58 -4.54 C 74.96 -5.44 75.16 -6.4 75.16 -7.42 C 75.16 -8.45 74.96 -9.41 74.58 -10.31 C 74.19 -11.22 73.66 -12 72.99 -12.68 C 72.32 -13.35 71.53 -13.88 70.63 -14.26 C 69.72 -14.65 68.76 -14.84 67.73 -14.84 L 62.78 -14.84 C 62.44 -14.84 62.11 -14.91 61.81 -15.03 C 61.52 -15.16 61.25 -15.33 61.03 -15.56 C 60.8 -15.78 60.63 -16.05 60.5 -16.35 C 60.38 -16.66 60.31 -16.98 60.31 -17.33 C 60.31 -17.67 60.38 -18 60.5 -18.29 C 60.63 -18.59 60.8 -18.86 61.03 -19.08 C 61.25 -19.3 61.52 -19.48 61.81 -19.61 C 62.11 -19.73 62.44 -19.8 62.78 -19.8 L 74.14 -19.8 L 74.14 -24.75 L 62.78 -24.75 C 61.76 -24.75 60.8 -24.55 59.9 -24.16 C 59 -23.77 58.22 -23.24 57.54 -22.57 C 56.87 -21.89 56.34 -21.11 55.95 -20.21 C 55.56 -19.31 55.36 -18.35 55.36 -17.33 Z M 86.89 0 L 86.89 -9.89 L 96.78 -9.89 L 96.78 0 L 101.73 0 L 101.73 -24.75 L 96.78 -24.75 L 96.78 -14.84 L 86.89 -14.84 L 86.89 -24.75 L 81.94 -24.75 L 81.94 0 Z" stroke-linecap="round" />
</g>
		<g transform="matrix(1.23 0 0 1.23 129.24 0)"  >
<path style="stroke: none; stroke-width: 1; stroke-dasharray: none; stroke-linecap: butt; stroke-dashoffset: 0; stroke-linejoin: miter; stroke-miterlimit: 4; fill: rgb(28,28,28); fill-rule: nonzero; opacity: 1;" vector-effect="non-scaling-stroke"  transform=" translate(-126.03, -21.21)" d="M 0 0 L 252.06105429598836 0 L 252.06105429598836 4 L 0 4 Z M 0 0 L 4 0 L 4 42.4225599959195 L 0 42.4225599959195 Z M 252.06105429598836 42.4225599959195 L 0 42.4225599959195 L 0 38.4225599959195 L 252.06105429598836 38.4225599959195 Z M 252.06105429598836 42.4225599959195 L 248.06105429598836 42.4225599959195 L 248.06105429598836 0 L 252.06105429598836 0 Z" stroke-linecap="round" />
</g>
		<g transform="matrix(1.23 0 0 1.23 129.23 0)"  >
<path style="stroke: none; stroke-width: 1; stroke-dasharray: none; stroke-linecap: butt; stroke-dashoffset: 0; stroke-linejoin: miter; stroke-miterlimit: 4; fill: rgb(74,144,226); fill-rule: nonzero; opacity: 1;" vector-effect="non-scaling-stroke"  transform=" translate(-0.56, 12.38)" d="M -99.67 0 L -99.67 -4.95 L -111.68 -4.95 L -111.68 -9.89 L -103.55 -9.89 L -103.55 -14.84 L -111.68 -14.84 L -111.68 -19.8 L -99.67 -19.8 L -99.67 -24.75 L -116.63 -24.75 L -116.63 0 Z M -72.87 0 L -72.87 -24.75 L -77.82 -24.75 L -77.82 -8.44 L -87.36 -24.75 L -92.66 -24.75 L -92.66 0 L -87.71 0 L -87.71 -16.29 L -78.16 0 Z M -54.35 0 L -54.35 -19.8 L -46.93 -19.8 L -46.93 -24.75 L -66.72 -24.75 L -66.72 -19.8 L -59.29 -19.8 L -59.29 0 Z M -23.8 0 L -23.8 -4.95 L -35.82 -4.95 L -35.82 -9.89 L -27.69 -9.89 L -27.69 -14.84 L -35.82 -14.84 L -35.82 -19.8 L -23.8 -19.8 L -23.8 -24.75 L -40.77 -24.75 L -40.77 0 Z M -11.85 -19.8 L -6.89 -19.8 C -6.21 -19.8 -5.58 -19.67 -4.98 -19.41 C -4.38 -19.15 -3.86 -18.8 -3.41 -18.35 C -2.96 -17.9 -2.6 -17.37 -2.35 -16.77 C -2.09 -16.16 -1.96 -15.52 -1.96 -14.84 C -1.96 -14.16 -2.09 -13.52 -2.35 -12.92 C -2.6 -12.31 -2.96 -11.79 -3.41 -11.34 C -3.86 -10.89 -4.38 -10.54 -4.98 -10.28 C -5.58 -10.02 -6.21 -9.89 -6.89 -9.89 L -11.85 -9.89 Z M -11.85 0 L -11.85 -4.95 L -6.31 -4.99 L -4.15 0 L 1.11 0 L -1.63 -6.47 C -0.92 -6.92 -0.27 -7.45 0.3 -8.06 C 0.88 -8.67 1.37 -9.34 1.76 -10.06 C 2.16 -10.79 2.46 -11.55 2.68 -12.36 C 2.89 -13.16 3 -13.99 3 -14.84 C 3 -15.75 2.88 -16.63 2.64 -17.47 C 2.41 -18.31 2.07 -19.09 1.64 -19.83 C 1.21 -20.57 0.69 -21.24 0.09 -21.84 C -0.52 -22.45 -1.18 -22.96 -1.91 -23.4 C -2.64 -23.83 -3.43 -24.16 -4.27 -24.4 C -5.11 -24.63 -5.98 -24.75 -6.89 -24.75 L -16.8 -24.75 L -16.8 0 Z M 14.73 -19.8 L 19.68 -19.8 C 20.36 -19.8 21 -19.67 21.6 -19.41 C 22.2 -19.15 22.72 -18.8 23.17 -18.35 C 23.62 -17.9 23.97 -17.37 24.23 -16.77 C 24.49 -16.16 24.62 -15.52 24.62 -14.84 C 24.62 -14.16 24.49 -13.52 24.23 -12.92 C 23.97 -12.31 23.62 -11.79 23.17 -11.34 C 22.72 -10.89 22.2 -10.54 21.6 -10.28 C 21 -10.02 20.36 -9.89 19.68 -9.89 L 14.73 -9.89 Z M 14.73 0 L 14.73 -4.95 L 19.68 -4.95 C 21.04 -4.95 22.32 -5.21 23.52 -5.73 C 24.73 -6.25 25.78 -6.96 26.67 -7.85 C 27.57 -8.75 28.28 -9.8 28.8 -11 C 29.31 -12.21 29.57 -13.49 29.57 -14.84 C 29.57 -15.75 29.45 -16.63 29.22 -17.47 C 28.98 -18.31 28.65 -19.09 28.22 -19.83 C 27.79 -20.57 27.27 -21.24 26.66 -21.84 C 26.06 -22.45 25.39 -22.96 24.66 -23.4 C 23.93 -23.83 23.15 -24.16 22.31 -24.4 C 21.47 -24.63 20.59 -24.75 19.68 -24.75 L 9.78 -24.75 L 9.78 0 Z M 40.96 -19.8 L 45.91 -19.8 C 46.59 -19.8 47.23 -19.67 47.83 -19.41 C 48.43 -19.15 48.95 -18.8 49.4 -18.35 C 49.85 -17.9 50.2 -17.37 50.46 -16.77 C 50.72 -16.16 50.85 -15.52 50.85 -14.84 C 50.85 -14.16 50.72 -13.52 50.46 -12.92 C 50.2 -12.31 49.85 -11.79 49.4 -11.34 C 48.95 -10.89 48.43 -10.54 47.83 -10.28 C 47.23 -10.02 46.59 -9.89 45.91 -9.89 L 40.96 -9.89 Z M 40.96 0 L 40.96 -4.95 L 46.5 -4.99 L 48.66 0 L 53.92 0 L 51.18 -6.47 C 51.89 -6.92 52.54 -7.45 53.11 -8.06 C 53.69 -8.67 54.17 -9.34 54.57 -10.06 C 54.97 -10.79 55.27 -11.55 55.48 -12.36 C 55.7 -13.16 55.8 -13.99 55.8 -14.84 C 55.8 -15.75 55.69 -16.63 55.45 -17.47 C 55.21 -18.31 54.88 -19.09 54.45 -19.83 C 54.02 -20.57 53.5 -21.24 52.89 -21.84 C 52.29 -22.45 51.62 -22.96 50.89 -23.4 C 50.16 -23.83 49.38 -24.16 48.54 -24.4 C 47.7 -24.63 46.82 -24.75 45.91 -24.75 L 36.01 -24.75 L 36.01 0 Z M 67.54 0 L 67.54 -24.75 L 62.58 -24.75 L 62.58 0 Z M 74.21 -17.33 C 74.21 -16.3 74.41 -15.34 74.8 -14.44 C 75.19 -13.53 75.72 -12.75 76.4 -12.07 C 77.07 -11.4 77.85 -10.87 78.75 -10.48 C 79.65 -10.09 80.61 -9.89 81.63 -9.89 L 86.59 -9.89 C 86.93 -9.89 87.25 -9.83 87.55 -9.7 C 87.85 -9.57 88.11 -9.4 88.34 -9.17 C 88.56 -8.95 88.74 -8.69 88.87 -8.39 C 88.99 -8.09 89.05 -7.77 89.05 -7.42 C 89.05 -7.08 88.99 -6.75 88.87 -6.46 C 88.74 -6.16 88.56 -5.89 88.34 -5.67 C 88.11 -5.45 87.85 -5.27 87.55 -5.14 C 87.25 -5.02 86.93 -4.95 86.59 -4.95 L 75.59 -4.95 L 75.59 0 L 86.59 0 C 87.61 0 88.57 -0.2 89.48 -0.59 C 90.38 -0.98 91.17 -1.51 91.84 -2.18 C 92.52 -2.86 93.04 -3.64 93.43 -4.54 C 93.82 -5.44 94.01 -6.4 94.01 -7.42 C 94.01 -8.45 93.82 -9.41 93.43 -10.31 C 93.04 -11.22 92.52 -12 91.84 -12.68 C 91.17 -13.35 90.38 -13.88 89.48 -14.26 C 88.57 -14.65 87.61 -14.84 86.59 -14.84 L 81.63 -14.84 C 81.29 -14.84 80.97 -14.91 80.67 -15.03 C 80.37 -15.16 80.11 -15.33 79.88 -15.56 C 79.66 -15.78 79.48 -16.05 79.36 -16.35 C 79.23 -16.66 79.17 -16.98 79.17 -17.33 C 79.17 -17.67 79.23 -18 79.36 -18.29 C 79.48 -18.59 79.66 -18.86 79.88 -19.08 C 80.11 -19.3 80.37 -19.48 80.67 -19.61 C 80.97 -19.73 81.29 -19.8 81.63 -19.8 L 92.99 -19.8 L 92.99 -24.75 L 81.63 -24.75 C 80.61 -24.75 79.65 -24.55 78.75 -24.16 C 77.85 -23.77 77.07 -23.24 76.4 -22.57 C 75.72 -21.89 75.19 -21.11 74.8 -20.21 C 74.41 -19.31 74.21 -18.35 74.21 -17.33 Z M 117.75 0 L 117.75 -4.95 L 105.74 -4.95 L 105.74 -9.89 L 113.87 -9.89 L 113.87 -14.84 L 105.74 -14.84 L 105.74 -19.8 L 117.75 -19.8 L 117.75 -24.75 L 100.79 -24.75 L 100.79 0 Z" stroke-linecap="round" />
</g>
</g>
</g>
</svg>